<?xml version="1.0" encoding="UTF-8"?>
<svg xmlns="http://www.w3.org/2000/svg" xmlns:xlink="http://www.w3.org/1999/xlink" width="20pt" height="20pt" viewBox="0 0 20 20" version="1.1">
<g id="surface1">
<path style=" stroke:none;fill-rule:nonzero;fill:rgb(100%,85.882353%,33.72549%);fill-opacity:1;" d="M 4.914062 16.828125 C 3.230469 16.828125 1.445312 17.382812 1.445312 18.414062 C 1.445312 19.445312 3.230469 20 4.914062 20 C 6.59375 20 8.378906 19.445312 8.378906 18.414062 C 8.378906 17.382812 6.59375 16.828125 4.914062 16.828125 Z M 4.914062 16.828125 "/>
<path style=" stroke:none;fill-rule:nonzero;fill:rgb(100%,29.019608%,29.019608%);fill-opacity:1;" d="M 4.914062 6.011719 C 2.207031 6.011719 0.0078125 8.210938 0.0078125 10.914062 C 0.0078125 12.59375 0.808594 14.398438 2.382812 16.28125 C 3.542969 17.664062 4.683594 18.554688 4.734375 18.59375 C 4.785156 18.632812 4.847656 18.652344 4.914062 18.652344 C 4.976562 18.652344 5.039062 18.632812 5.09375 18.59375 C 5.140625 18.554688 6.285156 17.664062 7.441406 16.28125 C 9.019531 14.398438 9.816406 12.59375 9.816406 10.914062 C 9.816406 8.210938 7.617188 6.011719 4.914062 6.011719 Z M 6.75 10.914062 C 6.75 11.929688 5.929688 12.753906 4.914062 12.753906 C 3.898438 12.753906 3.074219 11.929688 3.074219 10.914062 C 3.074219 9.898438 3.898438 9.078125 4.914062 9.078125 C 5.929688 9.078125 6.75 9.898438 6.75 10.914062 Z M 6.75 10.914062 "/>
<path style=" stroke:none;fill-rule:nonzero;fill:rgb(100%,85.882353%,33.72549%);fill-opacity:1;" d="M 17.988281 8.625 C 17.496094 8.421875 16.84375 8.3125 16.152344 8.3125 C 15.464844 8.3125 14.8125 8.421875 14.320312 8.625 C 13.742188 8.859375 13.421875 9.207031 13.421875 9.597656 C 13.421875 9.992188 13.742188 10.339844 14.320312 10.574219 C 14.8125 10.777344 15.464844 10.886719 16.152344 10.886719 C 16.84375 10.886719 17.496094 10.777344 17.988281 10.574219 C 18.566406 10.339844 18.886719 9.992188 18.886719 9.597656 C 18.886719 9.207031 18.566406 8.859375 17.988281 8.625 Z M 17.988281 8.625 "/>
<path style=" stroke:none;fill-rule:nonzero;fill:rgb(100%,73.333333%,14.117647%);fill-opacity:1;" d="M 4.914062 19.265625 C 3.445312 19.265625 1.894531 18.84375 1.527344 18.046875 C 1.476562 18.160156 1.445312 18.285156 1.445312 18.414062 C 1.445312 19.445312 3.230469 20 4.914062 20 C 6.59375 20 8.378906 19.445312 8.378906 18.414062 C 8.378906 18.285156 8.351562 18.160156 8.296875 18.046875 C 7.929688 18.84375 6.382812 19.265625 4.914062 19.265625 Z M 4.914062 19.265625 "/>
<path style=" stroke:none;fill-rule:nonzero;fill:rgb(100%,73.333333%,14.117647%);fill-opacity:1;" d="M 17.988281 9.839844 C 17.496094 10.042969 16.84375 10.152344 16.152344 10.152344 C 15.464844 10.152344 14.8125 10.042969 14.320312 9.839844 C 13.929688 9.683594 13.65625 9.472656 13.523438 9.234375 C 13.457031 9.347656 13.421875 9.472656 13.421875 9.597656 C 13.421875 9.992188 13.742188 10.339844 14.320312 10.574219 C 14.8125 10.777344 15.464844 10.886719 16.152344 10.886719 C 16.84375 10.886719 17.496094 10.777344 17.988281 10.574219 C 18.566406 10.339844 18.886719 9.992188 18.886719 9.597656 C 18.886719 9.472656 18.851562 9.347656 18.785156 9.234375 C 18.652344 9.472656 18.378906 9.683594 17.988281 9.839844 Z M 17.988281 9.839844 "/>
<path style=" stroke:none;fill-rule:nonzero;fill:rgb(100%,29.019608%,29.019608%);fill-opacity:1;" d="M 16.152344 0 C 14.039062 0 12.316406 1.722656 12.316406 3.835938 C 12.316406 5.144531 12.9375 6.546875 14.15625 8.003906 C 15.054688 9.074219 15.9375 9.761719 15.976562 9.789062 C 16.027344 9.832031 16.089844 9.851562 16.152344 9.851562 C 16.21875 9.851562 16.28125 9.832031 16.332031 9.789062 C 16.371094 9.761719 17.253906 9.074219 18.152344 8.003906 C 19.371094 6.546875 19.992188 5.144531 19.992188 3.835938 C 19.992188 1.722656 18.269531 0 16.152344 0 Z M 17.566406 3.835938 C 17.566406 4.617188 16.933594 5.25 16.152344 5.25 C 15.375 5.25 14.742188 4.617188 14.742188 3.835938 C 14.742188 3.054688 15.375 2.421875 16.152344 2.421875 C 16.933594 2.421875 17.566406 3.054688 17.566406 3.835938 Z M 17.566406 3.835938 "/>
<path style=" stroke:none;fill-rule:nonzero;fill:rgb(90.588235%,20.392157%,24.705882%);fill-opacity:1;" d="M 4.914062 6.011719 C 4.726562 6.011719 4.542969 6.023438 4.359375 6.042969 C 6.804688 6.320312 8.710938 8.398438 8.710938 10.914062 C 8.710938 12.59375 7.914062 14.398438 6.339844 16.28125 C 5.566406 17.203125 4.800781 17.90625 4.359375 18.285156 C 4.578125 18.472656 4.71875 18.582031 4.734375 18.59375 C 4.785156 18.632812 4.847656 18.652344 4.914062 18.652344 C 4.976562 18.652344 5.039062 18.632812 5.09375 18.59375 C 5.140625 18.554688 6.285156 17.664062 7.441406 16.28125 C 9.019531 14.398438 9.816406 12.59375 9.816406 10.914062 C 9.816406 8.210938 7.617188 6.011719 4.914062 6.011719 Z M 4.914062 6.011719 "/>
<path style=" stroke:none;fill-rule:nonzero;fill:rgb(90.588235%,20.392157%,24.705882%);fill-opacity:1;" d="M 16.152344 0 C 15.964844 0 15.78125 0.015625 15.601562 0.0390625 C 17.457031 0.308594 18.886719 1.910156 18.886719 3.835938 C 18.886719 5.144531 18.265625 6.546875 17.046875 8.003906 C 16.496094 8.660156 15.949219 9.175781 15.601562 9.480469 C 15.820312 9.671875 15.960938 9.78125 15.976562 9.789062 C 16.027344 9.832031 16.089844 9.851562 16.152344 9.851562 C 16.21875 9.851562 16.28125 9.832031 16.332031 9.789062 C 16.371094 9.761719 17.253906 9.074219 18.152344 8.003906 C 19.371094 6.546875 19.992188 5.144531 19.992188 3.835938 C 19.992188 1.722656 18.269531 0 16.152344 0 Z M 16.152344 0 "/>
<path style=" stroke:none;fill-rule:nonzero;fill:rgb(11.764706%,64.313725%,91.372549%);fill-opacity:1;" d="M 9.460938 18.707031 C 9.300781 18.707031 9.167969 18.578125 9.167969 18.414062 C 9.167969 18.253906 9.296875 18.121094 9.460938 18.121094 L 9.847656 18.117188 C 10.011719 18.117188 10.140625 18.25 10.144531 18.410156 C 10.144531 18.574219 10.011719 18.703125 9.851562 18.707031 L 9.464844 18.707031 C 9.460938 18.707031 9.460938 18.707031 9.460938 18.707031 Z M 11.011719 18.699219 C 10.851562 18.699219 10.71875 18.570312 10.71875 18.40625 C 10.71875 18.246094 10.847656 18.113281 11.011719 18.113281 L 11.398438 18.113281 C 11.558594 18.113281 11.691406 18.242188 11.691406 18.402344 C 11.691406 18.566406 11.5625 18.699219 11.398438 18.699219 Z M 12.5625 18.691406 C 12.398438 18.691406 12.269531 18.5625 12.265625 18.402344 C 12.265625 18.238281 12.398438 18.105469 12.558594 18.105469 L 12.945312 18.105469 C 12.949219 18.105469 12.949219 18.105469 12.949219 18.105469 C 13.109375 18.105469 13.242188 18.234375 13.242188 18.398438 C 13.242188 18.558594 13.113281 18.691406 12.949219 18.691406 Z M 14.109375 18.6875 C 13.949219 18.6875 13.816406 18.554688 13.816406 18.394531 C 13.816406 18.230469 13.945312 18.101562 14.109375 18.097656 L 14.496094 18.097656 C 14.660156 18.097656 14.789062 18.226562 14.789062 18.390625 C 14.792969 18.550781 14.660156 18.683594 14.5 18.683594 L 14.113281 18.6875 C 14.109375 18.6875 14.109375 18.6875 14.109375 18.6875 Z M 15.660156 18.679688 C 15.5 18.679688 15.367188 18.546875 15.367188 18.386719 C 15.367188 18.226562 15.496094 18.09375 15.660156 18.09375 L 16.046875 18.089844 C 16.207031 18.089844 16.339844 18.222656 16.339844 18.382812 C 16.339844 18.542969 16.210938 18.675781 16.046875 18.675781 Z M 17.210938 18.671875 C 17.046875 18.671875 16.917969 18.542969 16.914062 18.378906 C 16.914062 18.21875 17.046875 18.085938 17.207031 18.085938 L 17.261719 18.085938 C 17.359375 18.085938 17.460938 18.078125 17.554688 18.066406 C 17.714844 18.042969 17.863281 18.15625 17.886719 18.316406 C 17.90625 18.476562 17.796875 18.625 17.636719 18.644531 C 17.515625 18.664062 17.390625 18.671875 17.265625 18.671875 Z M 18.667969 18.230469 C 18.574219 18.230469 18.484375 18.1875 18.425781 18.105469 C 18.335938 17.972656 18.367188 17.789062 18.5 17.695312 C 18.59375 17.632812 18.683594 17.558594 18.765625 17.480469 C 18.882812 17.367188 19.070312 17.371094 19.179688 17.488281 C 19.292969 17.605469 19.289062 17.792969 19.171875 17.90625 C 19.066406 18.003906 18.953125 18.097656 18.835938 18.179688 C 18.785156 18.214844 18.726562 18.230469 18.667969 18.230469 Z M 19.59375 17.019531 C 19.5625 17.019531 19.53125 17.015625 19.496094 17.003906 C 19.34375 16.949219 19.265625 16.78125 19.320312 16.628906 C 19.359375 16.523438 19.386719 16.410156 19.410156 16.300781 C 19.4375 16.140625 19.59375 16.035156 19.75 16.066406 C 19.910156 16.097656 20.015625 16.25 19.984375 16.410156 C 19.957031 16.550781 19.921875 16.691406 19.871094 16.824219 C 19.828125 16.945312 19.714844 17.019531 19.59375 17.019531 Z M 19.644531 15.496094 C 19.515625 15.496094 19.398438 15.414062 19.363281 15.285156 C 19.332031 15.175781 19.289062 15.070312 19.242188 14.964844 C 19.171875 14.820312 19.238281 14.644531 19.382812 14.574219 C 19.53125 14.507812 19.703125 14.570312 19.773438 14.71875 C 19.835938 14.847656 19.886719 14.984375 19.925781 15.125 C 19.96875 15.277344 19.878906 15.441406 19.722656 15.484375 C 19.695312 15.492188 19.671875 15.496094 19.644531 15.496094 Z M 18.792969 14.230469 C 18.730469 14.230469 18.664062 14.210938 18.609375 14.167969 C 18.523438 14.097656 18.425781 14.035156 18.328125 13.980469 C 18.1875 13.898438 18.136719 13.71875 18.214844 13.578125 C 18.296875 13.4375 18.472656 13.386719 18.617188 13.46875 C 18.742188 13.539062 18.863281 13.621094 18.972656 13.707031 C 19.101562 13.808594 19.125 13.992188 19.023438 14.121094 C 18.964844 14.195312 18.878906 14.230469 18.792969 14.230469 Z M 17.363281 13.699219 C 17.359375 13.699219 17.355469 13.699219 17.351562 13.699219 C 17.320312 13.699219 17.285156 13.699219 17.253906 13.699219 L 16.976562 13.699219 C 16.816406 13.699219 16.683594 13.566406 16.683594 13.40625 C 16.683594 13.242188 16.816406 13.113281 16.976562 13.113281 L 17.253906 13.113281 C 17.292969 13.113281 17.335938 13.113281 17.378906 13.113281 C 17.539062 13.121094 17.664062 13.257812 17.65625 13.421875 C 17.652344 13.578125 17.519531 13.699219 17.363281 13.699219 Z M 15.816406 13.699219 L 15.429688 13.699219 C 15.265625 13.699219 15.132812 13.566406 15.132812 13.40625 C 15.132812 13.242188 15.265625 13.113281 15.429688 13.113281 L 15.816406 13.113281 C 15.976562 13.113281 16.109375 13.242188 16.109375 13.40625 C 16.109375 13.566406 15.976562 13.699219 15.816406 13.699219 Z M 14.265625 13.699219 L 13.878906 13.699219 C 13.714844 13.699219 13.585938 13.566406 13.585938 13.40625 C 13.585938 13.242188 13.714844 13.113281 13.878906 13.113281 L 14.265625 13.113281 C 14.429688 13.113281 14.558594 13.242188 14.558594 13.40625 C 14.558594 13.566406 14.429688 13.699219 14.265625 13.699219 Z M 12.714844 13.699219 L 12.328125 13.699219 C 12.167969 13.699219 12.035156 13.566406 12.035156 13.40625 C 12.035156 13.242188 12.167969 13.113281 12.328125 13.113281 L 12.714844 13.113281 C 12.878906 13.113281 13.007812 13.242188 13.007812 13.40625 C 13.007812 13.566406 12.878906 13.699219 12.714844 13.699219 Z M 11.222656 13.40625 C 11.167969 13.40625 11.113281 13.390625 11.066406 13.359375 C 10.941406 13.28125 10.820312 13.1875 10.714844 13.085938 C 10.597656 12.972656 10.59375 12.789062 10.707031 12.671875 C 10.820312 12.554688 11.003906 12.550781 11.121094 12.664062 C 11.199219 12.738281 11.285156 12.808594 11.378906 12.863281 C 11.515625 12.953125 11.558594 13.132812 11.46875 13.269531 C 11.414062 13.359375 11.320312 13.40625 11.222656 13.40625 Z M 10.371094 12.164062 C 10.230469 12.164062 10.109375 12.066406 10.082031 11.925781 C 10.054688 11.789062 10.042969 11.648438 10.042969 11.503906 L 10.042969 11.480469 C 10.042969 11.320312 10.175781 11.191406 10.335938 11.191406 C 10.335938 11.191406 10.335938 11.191406 10.339844 11.191406 C 10.5 11.195312 10.628906 11.328125 10.628906 11.488281 L 10.628906 11.503906 C 10.628906 11.609375 10.636719 11.714844 10.65625 11.816406 C 10.6875 11.972656 10.585938 12.128906 10.425781 12.160156 C 10.40625 12.164062 10.386719 12.164062 10.371094 12.164062 Z M 10.691406 10.691406 C 10.632812 10.691406 10.570312 10.675781 10.519531 10.636719 C 10.386719 10.542969 10.359375 10.359375 10.453125 10.226562 C 10.539062 10.105469 10.636719 9.996094 10.746094 9.894531 C 10.867188 9.785156 11.050781 9.792969 11.164062 9.910156 C 11.273438 10.03125 11.265625 10.214844 11.144531 10.324219 C 11.066406 10.398438 10.992188 10.480469 10.929688 10.570312 C 10.871094 10.648438 10.78125 10.691406 10.691406 10.691406 Z M 11.980469 9.914062 C 11.835938 9.914062 11.710938 9.808594 11.691406 9.660156 C 11.667969 9.5 11.78125 9.351562 11.941406 9.332031 C 12.039062 9.320312 12.136719 9.3125 12.234375 9.3125 L 12.367188 9.3125 C 12.53125 9.3125 12.660156 9.445312 12.660156 9.605469 C 12.660156 9.769531 12.53125 9.898438 12.367188 9.898438 L 12.234375 9.898438 C 12.164062 9.898438 12.089844 9.902344 12.019531 9.914062 C 12.007812 9.914062 11.996094 9.914062 11.980469 9.914062 Z M 11.980469 9.914062 "/>
</g>
</svg>
